<?xml version="1.0" encoding="UTF-8"?>
<svg id="Layer_1" xmlns="http://www.w3.org/2000/svg" version="1.1" viewBox="0 0 367.9 339.6">
  <!-- Generator: Adobe Illustrator 29.5.1, SVG Export Plug-In . SVG Version: 2.1.0 Build 141)  -->
  <defs>
    <style>
      .st0, .st1 {
        fill: #fff;
      }

      .st1, .st2 {
        stroke: #c7c7c7;
        stroke-miterlimit: 10;
        stroke-width: 7px;
      }

      .st2 {
        fill: none;
      }

      .st3 {
        display: none;
      }

      .st4 {
        fill: #c7c7c7;
      }
    </style>
  </defs>
  <g class="st3">
    <path class="st1" d="M350.6,229.2c.2,1.8.3,3.7.3,5.6,0,56-75.8,101.3-169.2,101.3S12.3,290.7,12.3,234.8s0-4,.3-5.9"/>
    <g>
      <path class="st0" d="M181.6,309.6c-93.8,0-170.1-43.9-170.1-97.8s76.3-97.8,170.1-97.8,170.1,43.9,170.1,97.8-76.3,97.8-170.1,97.8Z"/>
      <path class="st4" d="M181.6,117.4c45.2,0,87.5,10.2,119.3,28.7,30.6,17.8,47.4,41.1,47.4,65.6s-16.8,47.8-47.4,65.6c-31.7,18.5-74.1,28.7-119.3,28.7s-87.5-10.2-119.3-28.7c-30.6-17.8-47.4-41.1-47.4-65.6s16.8-47.8,47.4-65.6c31.7-18.5,74.1-28.7,119.3-28.7M181.6,110.4c-95.9,0-173.6,45.4-173.6,101.3s77.7,101.3,173.6,101.3,173.6-45.4,173.6-101.3-77.7-101.3-173.6-101.3h0Z"/>
    </g>
    <line class="st2" x1="11.4" y1="211.8" x2="11.4" y2="236.2"/>
    <line class="st2" x1="351.7" y1="211.6" x2="351.7" y2="235.9"/>
  </g>
  <g class="st3">
    <path class="st1" d="M363.2,170.4c.2,1.8.3,3.7.3,5.6,0,56-75.8,101.3-169.2,101.3S25,231.9,25,176s0-4,.3-5.9"/>
    <g>
      <path class="st0" d="M194.3,250.8c-93.8,0-170.1-43.9-170.1-97.8S100.4,55.1,194.3,55.1s170.1,43.9,170.1,97.8-76.3,97.8-170.1,97.8Z"/>
      <path class="st4" d="M194.3,58.6c45.2,0,87.5,10.2,119.3,28.7,30.6,17.8,47.4,41.1,47.4,65.6s-16.8,47.8-47.4,65.6c-31.7,18.5-74.1,28.7-119.3,28.7s-87.5-10.2-119.3-28.7c-30.6-17.8-47.4-41.1-47.4-65.6s16.8-47.8,47.4-65.6c31.7-18.5,74.1-28.7,119.3-28.7M194.3,51.6c-95.9,0-173.6,45.4-173.6,101.3s77.7,101.3,173.6,101.3,173.6-45.4,173.6-101.3-77.7-101.3-173.6-101.3h0Z"/>
    </g>
    <line class="st2" x1="24.1" y1="153" x2="24.1" y2="177.3"/>
    <line class="st2" x1="364.3" y1="152.8" x2="364.3" y2="177.1"/>
  </g>
  <g>
    <path class="st1" d="M349.5,234.5c0,56-76.7,101.2-170.2,101.2S9.2,290.3,9.2,234.3"/>
    <g>
      <path class="st0" d="M179.3,309.2c-93.8,0-170.1-43.9-170.1-97.8s76.3-97.8,170.1-97.8,170.1,43.9,170.1,97.8-76.3,97.8-170.1,97.8Z"/>
      <path class="st4" d="M179.3,117c45.2,0,87.5,10.2,119.3,28.7,30.6,17.8,47.4,41.1,47.4,65.6s-16.8,47.8-47.4,65.6c-31.7,18.5-74.1,28.7-119.3,28.7s-87.5-10.2-119.3-28.7c-30.6-17.8-47.4-41.1-47.4-65.6s16.8-47.8,47.4-65.6c31.7-18.5,74.1-28.7,119.3-28.7M179.3,110c-95.9,0-173.6,45.4-173.6,101.3s77.7,101.3,173.6,101.3,173.6-45.4,173.6-101.3-77.7-101.3-173.6-101.3h0Z"/>
    </g>
    <line class="st2" x1="9.2" y1="212.3" x2="9.2" y2="234.6"/>
    <line class="st2" x1="349.5" y1="212.2" x2="349.5" y2="235.3"/>
  </g>
  <g>
    <path class="st1" d="M362.5,179.9c0,56-76.7,101.2-170.2,101.2S22.2,235.7,22.2,179.8"/>
    <g>
      <path class="st0" d="M192.3,254.6c-93.8,0-170.1-43.9-170.1-97.8S98.5,59,192.3,59s170.1,43.9,170.1,97.8-76.3,97.8-170.1,97.8Z"/>
      <path class="st4" d="M192.3,62.5c45.2,0,87.5,10.2,119.3,28.7,30.6,17.8,47.4,41.1,47.4,65.6s-16.8,47.8-47.4,65.6c-31.7,18.5-74.1,28.7-119.3,28.7s-87.5-10.2-119.3-28.7c-30.6-17.8-47.4-41.1-47.4-65.6s16.8-47.8,47.4-65.6c31.7-18.5,74.1-28.7,119.3-28.7M192.3,55.5c-95.9,0-173.6,45.4-173.6,101.3s77.7,101.3,173.6,101.3,173.6-45.4,173.6-101.3-77.7-101.3-173.6-101.3h0Z"/>
    </g>
    <line class="st2" x1="22.2" y1="157.8" x2="22.2" y2="180.1"/>
    <line class="st2" x1="362.5" y1="157.6" x2="362.5" y2="180.8"/>
  </g>
  <g>
    <path class="st1" d="M343.8,124.5c0,56-76.7,101.2-170.2,101.2S3.5,180.3,3.5,124.3"/>
    <g>
      <path class="st0" d="M173.6,199.2C79.8,199.2,3.5,155.3,3.5,101.3S79.8,3.5,173.6,3.5s170.1,43.9,170.1,97.8-76.3,97.8-170.1,97.8Z"/>
      <path class="st4" d="M173.6,7c45.2,0,87.5,10.2,119.3,28.7,30.6,17.8,47.4,41.1,47.4,65.6s-16.8,47.8-47.4,65.6c-31.7,18.5-74.1,28.7-119.3,28.7s-87.5-10.2-119.3-28.7C23.8,149.1,7,125.8,7,101.3S23.8,53.6,54.4,35.7c31.7-18.5,74.1-28.7,119.3-28.7M173.6,0C77.7,0,0,45.4,0,101.3s77.7,101.3,173.6,101.3,173.6-45.4,173.6-101.3S269.5,0,173.6,0h0Z"/>
    </g>
    <line class="st2" x1="3.5" y1="102.3" x2="3.5" y2="124.6"/>
    <line class="st2" x1="343.8" y1="102.2" x2="343.8" y2="125.3"/>
  </g>
  <ellipse class="st1" cx="175.5" cy="101.7" rx="114.3" ry="59.9"/>
</svg>